<?xml version="1.0" encoding="UTF-8"?>
<svg xmlns="http://www.w3.org/2000/svg" xmlns:xlink="http://www.w3.org/1999/xlink" width="115" height="89" viewBox="0 0 115 89"><title id="imgabab8baec3cf4c2481a023805ce4baac">\renewcommand{\arraystretch}{1} \setlength{\unitlength}{1.0pt} \begin{tikzpicture}[xscale=1.3]&#13;\draw[dotted,fill=gray!50] (.1,.1) rectangle (.9,.9);&#13;\draw[dotted,fill=gray!50] (1.1,.1) rectangle (1.9,.9);&#13;\draw[dotted,fill=gray!50] (.1,1.1) rectangle (.9,1.9);&#13;\draw[dotted,fill=gray!50] (1.1,1.1) rectangle (1.9,1.9);&#13;\draw[dotted,fill=gray!50] (2.1,1.1) rectangle (2.9,1.9);&#13;\draw[dotted,fill=gray!50] (2.1,2.1) rectangle (2.9,2.9);&#13;\draw[dotted,fill=gray!50] (1.1,2.1) rectangle (1.9,2.9);&#13;\draw(.1,0)--(.9,0);&#13;\draw(1.1,0)--(1.9,0);&#13;\draw(.1,1)--(.9,1);&#13;\draw(1.1,1)--(1.9,1);&#13;\draw(2.1,1)--(2.9,1);&#13;\draw(.1,2)--(.9,2);&#13;\draw(1.1,2)--(1.9,2);&#13;\draw(2.1,2)--(2.9,2);&#13;\draw(1.1,3)--(1.9,3);&#13;\draw(2.1,3)--(2.9,3);&#13;\draw(0,.1)--(0,.9);&#13;\draw(0,1.1)--(0,1.9);&#13;\draw(1,.1)--(1,.9);&#13;\draw(1,1.1)--(1,1.9);&#13;\draw(1,2.1)--(1,2.9);&#13;\draw(2,.1)--(2,.9);&#13;\draw(2,1.1)--(2,1.9);&#13;\draw(2,2.1)--(2,2.9);&#13;\draw(3,1.1)--(3,1.9);&#13;\draw(3,2.1)--(3,2.9);&#13;\node[circle,fill,inner sep=1pt] at (0,0) {};&#13;\node[circle,fill,inner sep=1pt] at (1,0) {};&#13;\node[circle,fill,inner sep=1pt] at (2,0) {};&#13;\node[circle,fill,inner sep=1pt] at (0,1) {};&#13;\node[circle,fill,inner sep=1pt] at (1,1) {};&#13;\node[circle,fill,inner sep=1pt] at (2,1) {};&#13;\node[circle,fill,inner sep=1pt] at (3,1) {};&#13;\node[circle,fill,inner sep=1pt] at (0,2) {};&#13;\node[circle,fill,inner sep=1pt] at (1,2) {};&#13;\node[circle,fill,inner sep=1pt] at (2,2) {};&#13;\node[circle,fill,inner sep=1pt] at (3,2) {};&#13;\node[circle,fill,inner sep=1pt] at (1,3) {};&#13;\node[circle,fill,inner sep=1pt] at (2,3) {};&#13;\node[circle,fill,inner sep=1pt] at (3,3) {};&#13;\end{tikzpicture}</title>
<path fill-rule="nonzero" fill="rgb(75%, 75%, 75%)" fill-opacity="1" stroke-width="0.3985" stroke-linecap="butt" stroke-linejoin="miter" stroke="rgb(0%, 0%, 0%)" stroke-opacity="1" stroke-dasharray="0.3985 1.99255" stroke-miterlimit="10" d="M 3.685344 2.834719 L 3.685344 25.5105 L 33.165813 25.5105 L 33.165813 2.834719 Z M 3.685344 2.834719 " transform="matrix(1, 0, 0, -1, 2.342, 87.448)"/>
<path fill-rule="nonzero" fill="rgb(75%, 75%, 75%)" fill-opacity="1" stroke-width="0.3985" stroke-linecap="butt" stroke-linejoin="miter" stroke="rgb(0%, 0%, 0%)" stroke-opacity="1" stroke-dasharray="0.3985 1.99255" stroke-miterlimit="10" d="M 40.536906 2.834719 L 40.536906 25.5105 L 70.017375 25.5105 L 70.017375 2.834719 Z M 40.536906 2.834719 " transform="matrix(1, 0, 0, -1, 2.342, 87.448)"/>
<path fill-rule="nonzero" fill="rgb(75%, 75%, 75%)" fill-opacity="1" stroke-width="0.3985" stroke-linecap="butt" stroke-linejoin="miter" stroke="rgb(0%, 0%, 0%)" stroke-opacity="1" stroke-dasharray="0.3985 1.99255" stroke-miterlimit="10" d="M 3.685344 31.182375 L 3.685344 53.858156 L 33.165813 53.858156 L 33.165813 31.182375 Z M 3.685344 31.182375 " transform="matrix(1, 0, 0, -1, 2.342, 87.448)"/>
<path fill-rule="nonzero" fill="rgb(75%, 75%, 75%)" fill-opacity="1" stroke-width="0.3985" stroke-linecap="butt" stroke-linejoin="miter" stroke="rgb(0%, 0%, 0%)" stroke-opacity="1" stroke-dasharray="0.3985 1.99255" stroke-miterlimit="10" d="M 40.536906 31.182375 L 40.536906 53.858156 L 70.017375 53.858156 L 70.017375 31.182375 Z M 40.536906 31.182375 " transform="matrix(1, 0, 0, -1, 2.342, 87.448)"/>
<path fill-rule="nonzero" fill="rgb(75%, 75%, 75%)" fill-opacity="1" stroke-width="0.3985" stroke-linecap="butt" stroke-linejoin="miter" stroke="rgb(0%, 0%, 0%)" stroke-opacity="1" stroke-dasharray="0.3985 1.99255" stroke-miterlimit="10" d="M 77.388469 31.182375 L 77.388469 53.858156 L 106.868938 53.858156 L 106.868938 31.182375 Z M 77.388469 31.182375 " transform="matrix(1, 0, 0, -1, 2.342, 87.448)"/>
<path fill-rule="nonzero" fill="rgb(75%, 75%, 75%)" fill-opacity="1" stroke-width="0.3985" stroke-linecap="butt" stroke-linejoin="miter" stroke="rgb(0%, 0%, 0%)" stroke-opacity="1" stroke-dasharray="0.3985 1.99255" stroke-miterlimit="10" d="M 77.388469 59.530031 L 77.388469 82.205813 L 106.868938 82.205813 L 106.868938 59.530031 Z M 77.388469 59.530031 " transform="matrix(1, 0, 0, -1, 2.342, 87.448)"/>
<path fill-rule="nonzero" fill="rgb(75%, 75%, 75%)" fill-opacity="1" stroke-width="0.3985" stroke-linecap="butt" stroke-linejoin="miter" stroke="rgb(0%, 0%, 0%)" stroke-opacity="1" stroke-dasharray="0.3985 1.99255" stroke-miterlimit="10" d="M 40.536906 59.530031 L 40.536906 82.205813 L 70.017375 82.205813 L 70.017375 59.530031 Z M 40.536906 59.530031 " transform="matrix(1, 0, 0, -1, 2.342, 87.448)"/>
<path fill="none" stroke-width="0.3985" stroke-linecap="butt" stroke-linejoin="miter" stroke="rgb(0%, 0%, 0%)" stroke-opacity="1" stroke-miterlimit="10" d="M 3.685344 -0.00121875 L 33.165813 -0.00121875 " transform="matrix(1, 0, 0, -1, 2.342, 87.448)"/>
<path fill="none" stroke-width="0.3985" stroke-linecap="butt" stroke-linejoin="miter" stroke="rgb(0%, 0%, 0%)" stroke-opacity="1" stroke-miterlimit="10" d="M 40.536906 -0.00121875 L 70.017375 -0.00121875 " transform="matrix(1, 0, 0, -1, 2.342, 87.448)"/>
<path fill="none" stroke-width="0.3985" stroke-linecap="butt" stroke-linejoin="miter" stroke="rgb(0%, 0%, 0%)" stroke-opacity="1" stroke-miterlimit="10" d="M 3.685344 28.346438 L 33.165813 28.346438 " transform="matrix(1, 0, 0, -1, 2.342, 87.448)"/>
<path fill="none" stroke-width="0.3985" stroke-linecap="butt" stroke-linejoin="miter" stroke="rgb(0%, 0%, 0%)" stroke-opacity="1" stroke-miterlimit="10" d="M 40.536906 28.346438 L 70.017375 28.346438 " transform="matrix(1, 0, 0, -1, 2.342, 87.448)"/>
<path fill="none" stroke-width="0.3985" stroke-linecap="butt" stroke-linejoin="miter" stroke="rgb(0%, 0%, 0%)" stroke-opacity="1" stroke-miterlimit="10" d="M 77.388469 28.346438 L 106.868938 28.346438 " transform="matrix(1, 0, 0, -1, 2.342, 87.448)"/>
<path fill="none" stroke-width="0.3985" stroke-linecap="butt" stroke-linejoin="miter" stroke="rgb(0%, 0%, 0%)" stroke-opacity="1" stroke-miterlimit="10" d="M 3.685344 56.694094 L 33.165813 56.694094 " transform="matrix(1, 0, 0, -1, 2.342, 87.448)"/>
<path fill="none" stroke-width="0.3985" stroke-linecap="butt" stroke-linejoin="miter" stroke="rgb(0%, 0%, 0%)" stroke-opacity="1" stroke-miterlimit="10" d="M 40.536906 56.694094 L 70.017375 56.694094 " transform="matrix(1, 0, 0, -1, 2.342, 87.448)"/>
<path fill="none" stroke-width="0.3985" stroke-linecap="butt" stroke-linejoin="miter" stroke="rgb(0%, 0%, 0%)" stroke-opacity="1" stroke-miterlimit="10" d="M 77.388469 56.694094 L 106.868938 56.694094 " transform="matrix(1, 0, 0, -1, 2.342, 87.448)"/>
<path fill="none" stroke-width="0.3985" stroke-linecap="butt" stroke-linejoin="miter" stroke="rgb(0%, 0%, 0%)" stroke-opacity="1" stroke-miterlimit="10" d="M 40.536906 85.04175 L 70.017375 85.04175 " transform="matrix(1, 0, 0, -1, 2.342, 87.448)"/>
<path fill="none" stroke-width="0.3985" stroke-linecap="butt" stroke-linejoin="miter" stroke="rgb(0%, 0%, 0%)" stroke-opacity="1" stroke-miterlimit="10" d="M 77.388469 85.04175 L 106.868938 85.04175 " transform="matrix(1, 0, 0, -1, 2.342, 87.448)"/>
<path fill="none" stroke-width="0.3985" stroke-linecap="butt" stroke-linejoin="miter" stroke="rgb(0%, 0%, 0%)" stroke-opacity="1" stroke-miterlimit="10" d="M 0.00175 2.834719 L 0.00175 25.5105 " transform="matrix(1, 0, 0, -1, 2.342, 87.448)"/>
<path fill="none" stroke-width="0.3985" stroke-linecap="butt" stroke-linejoin="miter" stroke="rgb(0%, 0%, 0%)" stroke-opacity="1" stroke-miterlimit="10" d="M 0.00175 31.182375 L 0.00175 53.858156 " transform="matrix(1, 0, 0, -1, 2.342, 87.448)"/>
<path fill="none" stroke-width="0.3985" stroke-linecap="butt" stroke-linejoin="miter" stroke="rgb(0%, 0%, 0%)" stroke-opacity="1" stroke-miterlimit="10" d="M 36.849406 2.834719 L 36.849406 25.5105 " transform="matrix(1, 0, 0, -1, 2.342, 87.448)"/>
<path fill="none" stroke-width="0.3985" stroke-linecap="butt" stroke-linejoin="miter" stroke="rgb(0%, 0%, 0%)" stroke-opacity="1" stroke-miterlimit="10" d="M 36.849406 31.182375 L 36.849406 53.858156 " transform="matrix(1, 0, 0, -1, 2.342, 87.448)"/>
<path fill="none" stroke-width="0.3985" stroke-linecap="butt" stroke-linejoin="miter" stroke="rgb(0%, 0%, 0%)" stroke-opacity="1" stroke-miterlimit="10" d="M 36.849406 59.530031 L 36.849406 82.205813 " transform="matrix(1, 0, 0, -1, 2.342, 87.448)"/>
<path fill="none" stroke-width="0.3985" stroke-linecap="butt" stroke-linejoin="miter" stroke="rgb(0%, 0%, 0%)" stroke-opacity="1" stroke-miterlimit="10" d="M 73.700969 2.834719 L 73.700969 25.5105 " transform="matrix(1, 0, 0, -1, 2.342, 87.448)"/>
<path fill="none" stroke-width="0.3985" stroke-linecap="butt" stroke-linejoin="miter" stroke="rgb(0%, 0%, 0%)" stroke-opacity="1" stroke-miterlimit="10" d="M 73.700969 31.182375 L 73.700969 53.858156 " transform="matrix(1, 0, 0, -1, 2.342, 87.448)"/>
<path fill="none" stroke-width="0.3985" stroke-linecap="butt" stroke-linejoin="miter" stroke="rgb(0%, 0%, 0%)" stroke-opacity="1" stroke-miterlimit="10" d="M 73.700969 59.530031 L 73.700969 82.205813 " transform="matrix(1, 0, 0, -1, 2.342, 87.448)"/>
<path fill="none" stroke-width="0.3985" stroke-linecap="butt" stroke-linejoin="miter" stroke="rgb(0%, 0%, 0%)" stroke-opacity="1" stroke-miterlimit="10" d="M 110.552531 31.182375 L 110.552531 53.858156 " transform="matrix(1, 0, 0, -1, 2.342, 87.448)"/>
<path fill="none" stroke-width="0.3985" stroke-linecap="butt" stroke-linejoin="miter" stroke="rgb(0%, 0%, 0%)" stroke-opacity="1" stroke-miterlimit="10" d="M 110.552531 59.530031 L 110.552531 82.205813 " transform="matrix(1, 0, 0, -1, 2.342, 87.448)"/>
<path fill-rule="nonzero" fill="rgb(0%, 0%, 0%)" fill-opacity="1" d="M 3.75 87.449219 C 3.75 86.667969 3.121094 86.039062 2.34375 86.039062 C 1.5625 86.039062 0.933594 86.667969 0.933594 87.449219 C 0.933594 88.226562 1.5625 88.855469 2.34375 88.855469 C 3.121094 88.855469 3.75 88.226562 3.75 87.449219 Z M 3.75 87.449219 "/>
<path fill-rule="nonzero" fill="rgb(0%, 0%, 0%)" fill-opacity="1" d="M 40.601562 87.449219 C 40.601562 86.667969 39.972656 86.039062 39.191406 86.039062 C 38.414062 86.039062 37.785156 86.667969 37.785156 87.449219 C 37.785156 88.226562 38.414062 88.855469 39.191406 88.855469 C 39.972656 88.855469 40.601562 88.226562 40.601562 87.449219 Z M 40.601562 87.449219 "/>
<path fill-rule="nonzero" fill="rgb(0%, 0%, 0%)" fill-opacity="1" d="M 77.453125 87.449219 C 77.453125 86.667969 76.820312 86.039062 76.042969 86.039062 C 75.265625 86.039062 74.636719 86.667969 74.636719 87.449219 C 74.636719 88.226562 75.265625 88.855469 76.042969 88.855469 C 76.820312 88.855469 77.453125 88.226562 77.453125 87.449219 Z M 77.453125 87.449219 "/>
<path fill-rule="nonzero" fill="rgb(0%, 0%, 0%)" fill-opacity="1" d="M 3.75 59.101562 C 3.75 58.324219 3.121094 57.691406 2.34375 57.691406 C 1.5625 57.691406 0.933594 58.324219 0.933594 59.101562 C 0.933594 59.878906 1.5625 60.511719 2.34375 60.511719 C 3.121094 60.511719 3.75 59.878906 3.75 59.101562 Z M 3.75 59.101562 "/>
<path fill-rule="nonzero" fill="rgb(0%, 0%, 0%)" fill-opacity="1" d="M 40.601562 59.101562 C 40.601562 58.324219 39.972656 57.691406 39.191406 57.691406 C 38.414062 57.691406 37.785156 58.324219 37.785156 59.101562 C 37.785156 59.878906 38.414062 60.511719 39.191406 60.511719 C 39.972656 60.511719 40.601562 59.878906 40.601562 59.101562 Z M 40.601562 59.101562 "/>
<path fill-rule="nonzero" fill="rgb(0%, 0%, 0%)" fill-opacity="1" d="M 77.453125 59.101562 C 77.453125 58.324219 76.820312 57.691406 76.042969 57.691406 C 75.265625 57.691406 74.636719 58.324219 74.636719 59.101562 C 74.636719 59.878906 75.265625 60.511719 76.042969 60.511719 C 76.820312 60.511719 77.453125 59.878906 77.453125 59.101562 Z M 77.453125 59.101562 "/>
<path fill-rule="nonzero" fill="rgb(0%, 0%, 0%)" fill-opacity="1" d="M 114.304688 59.101562 C 114.304688 58.324219 113.671875 57.691406 112.894531 57.691406 C 112.117188 57.691406 111.484375 58.324219 111.484375 59.101562 C 111.484375 59.878906 112.117188 60.511719 112.894531 60.511719 C 113.671875 60.511719 114.304688 59.878906 114.304688 59.101562 Z M 114.304688 59.101562 "/>
<path fill-rule="nonzero" fill="rgb(0%, 0%, 0%)" fill-opacity="1" d="M 3.75 30.753906 C 3.75 29.976562 3.121094 29.34375 2.34375 29.34375 C 1.5625 29.34375 0.933594 29.976562 0.933594 30.753906 C 0.933594 31.53125 1.5625 32.164062 2.34375 32.164062 C 3.121094 32.164062 3.75 31.53125 3.75 30.753906 Z M 3.75 30.753906 "/>
<path fill-rule="nonzero" fill="rgb(0%, 0%, 0%)" fill-opacity="1" d="M 40.601562 30.753906 C 40.601562 29.976562 39.972656 29.34375 39.191406 29.34375 C 38.414062 29.34375 37.785156 29.976562 37.785156 30.753906 C 37.785156 31.53125 38.414062 32.164062 39.191406 32.164062 C 39.972656 32.164062 40.601562 31.53125 40.601562 30.753906 Z M 40.601562 30.753906 "/>
<path fill-rule="nonzero" fill="rgb(0%, 0%, 0%)" fill-opacity="1" d="M 77.453125 30.753906 C 77.453125 29.976562 76.820312 29.34375 76.042969 29.34375 C 75.265625 29.34375 74.636719 29.976562 74.636719 30.753906 C 74.636719 31.53125 75.265625 32.164062 76.042969 32.164062 C 76.820312 32.164062 77.453125 31.53125 77.453125 30.753906 Z M 77.453125 30.753906 "/>
<path fill-rule="nonzero" fill="rgb(0%, 0%, 0%)" fill-opacity="1" d="M 114.304688 30.753906 C 114.304688 29.976562 113.671875 29.34375 112.894531 29.34375 C 112.117188 29.34375 111.484375 29.976562 111.484375 30.753906 C 111.484375 31.53125 112.117188 32.164062 112.894531 32.164062 C 113.671875 32.164062 114.304688 31.53125 114.304688 30.753906 Z M 114.304688 30.753906 "/>
<path fill-rule="nonzero" fill="rgb(0%, 0%, 0%)" fill-opacity="1" d="M 40.601562 2.40625 C 40.601562 1.628906 39.972656 1 39.191406 1 C 38.414062 1 37.785156 1.628906 37.785156 2.40625 C 37.785156 3.1875 38.414062 3.816406 39.191406 3.816406 C 39.972656 3.816406 40.601562 3.1875 40.601562 2.40625 Z M 40.601562 2.40625 "/>
<path fill-rule="nonzero" fill="rgb(0%, 0%, 0%)" fill-opacity="1" d="M 77.453125 2.40625 C 77.453125 1.628906 76.820312 1 76.042969 1 C 75.265625 1 74.636719 1.628906 74.636719 2.40625 C 74.636719 3.1875 75.265625 3.816406 76.042969 3.816406 C 76.820312 3.816406 77.453125 3.1875 77.453125 2.40625 Z M 77.453125 2.40625 "/>
<path fill-rule="nonzero" fill="rgb(0%, 0%, 0%)" fill-opacity="1" d="M 114.304688 2.40625 C 114.304688 1.628906 113.671875 1 112.894531 1 C 112.117188 1 111.484375 1.628906 111.484375 2.40625 C 111.484375 3.1875 112.117188 3.816406 112.894531 3.816406 C 113.671875 3.816406 114.304688 3.1875 114.304688 2.40625 Z M 114.304688 2.40625 "/>
</svg>
